<mxfile host="app.diagrams.net" agent="Mozilla/5.0 (Windows NT 10.0; Win64; x64) AppleWebKit/537.36 (KHTML, like Gecko) Chrome/134.0.0.0 Safari/537.36" version="26.1.0">
  <diagram name="Page-1" id="Fkdy4l-2S9HuPJjAgvq9">
    <mxGraphModel dx="1434" dy="858" grid="1" gridSize="10" guides="1" tooltips="1" connect="1" arrows="1" fold="1" page="1" pageScale="1" pageWidth="850" pageHeight="1100" math="0" shadow="0">
      <root>
        <mxCell id="0" />
        <mxCell id="1" parent="0" />
        <mxCell id="a8vrUaEyxEgkCQSDoEBb-1" value="Risk Management Team" style="shape=umlActor;verticalLabelPosition=bottom;verticalAlign=top;html=1;fontFamily=Verdana;" vertex="1" parent="1">
          <mxGeometry x="980" y="430" width="30" height="60" as="geometry" />
        </mxCell>
        <mxCell id="a8vrUaEyxEgkCQSDoEBb-2" value="" style="whiteSpace=wrap;html=1;aspect=fixed;" vertex="1" parent="1">
          <mxGeometry x="245" y="300" width="630" height="630" as="geometry" />
        </mxCell>
        <mxCell id="a8vrUaEyxEgkCQSDoEBb-48" style="edgeStyle=orthogonalEdgeStyle;rounded=0;orthogonalLoop=1;jettySize=auto;html=1;exitX=1;exitY=1;exitDx=0;exitDy=0;exitPerimeter=0;" edge="1" parent="1" source="a8vrUaEyxEgkCQSDoEBb-3" target="a8vrUaEyxEgkCQSDoEBb-36">
          <mxGeometry relative="1" as="geometry">
            <Array as="points">
              <mxPoint x="160" y="460" />
              <mxPoint x="360" y="460" />
            </Array>
          </mxGeometry>
        </mxCell>
        <mxCell id="a8vrUaEyxEgkCQSDoEBb-3" value="IT Administrator" style="shape=umlActor;verticalLabelPosition=bottom;verticalAlign=top;html=1;outlineConnect=0;" vertex="1" parent="1">
          <mxGeometry x="130" y="170" width="30" height="60" as="geometry" />
        </mxCell>
        <mxCell id="a8vrUaEyxEgkCQSDoEBb-47" style="edgeStyle=orthogonalEdgeStyle;rounded=0;orthogonalLoop=1;jettySize=auto;html=1;exitX=0.5;exitY=0.5;exitDx=0;exitDy=0;exitPerimeter=0;" edge="1" parent="1" source="a8vrUaEyxEgkCQSDoEBb-6">
          <mxGeometry relative="1" as="geometry">
            <mxPoint x="360" y="360" as="targetPoint" />
          </mxGeometry>
        </mxCell>
        <mxCell id="a8vrUaEyxEgkCQSDoEBb-6" value="Identity and Access&lt;div&gt;Management Team&lt;/div&gt;" style="shape=umlActor;verticalLabelPosition=bottom;verticalAlign=top;html=1;outlineConnect=0;" vertex="1" parent="1">
          <mxGeometry x="425" y="170" width="30" height="60" as="geometry" />
        </mxCell>
        <mxCell id="a8vrUaEyxEgkCQSDoEBb-7" value="Developers and Software&lt;div&gt;Engineers&lt;/div&gt;" style="shape=umlActor;verticalLabelPosition=bottom;verticalAlign=top;html=1;outlineConnect=0;" vertex="1" parent="1">
          <mxGeometry x="80" y="720" width="30" height="60" as="geometry" />
        </mxCell>
        <mxCell id="a8vrUaEyxEgkCQSDoEBb-8" value="Database Administrators" style="shape=umlActor;verticalLabelPosition=bottom;verticalAlign=top;html=1;outlineConnect=0;" vertex="1" parent="1">
          <mxGeometry x="80" y="510" width="30" height="60" as="geometry" />
        </mxCell>
        <mxCell id="a8vrUaEyxEgkCQSDoEBb-9" value="External Auditors" style="shape=umlActor;verticalLabelPosition=bottom;verticalAlign=top;html=1;outlineConnect=0;" vertex="1" parent="1">
          <mxGeometry x="130" y="910" width="30" height="60" as="geometry" />
        </mxCell>
        <mxCell id="a8vrUaEyxEgkCQSDoEBb-10" value="Chief Information officer" style="shape=umlActor;verticalLabelPosition=bottom;verticalAlign=top;html=1;outlineConnect=0;" vertex="1" parent="1">
          <mxGeometry x="990" y="720" width="30" height="60" as="geometry" />
        </mxCell>
        <mxCell id="a8vrUaEyxEgkCQSDoEBb-11" value="DevOPS Team" style="shape=umlActor;verticalLabelPosition=bottom;verticalAlign=top;html=1;outlineConnect=0;" vertex="1" parent="1">
          <mxGeometry x="80" y="330" width="30" height="60" as="geometry" />
        </mxCell>
        <mxCell id="a8vrUaEyxEgkCQSDoEBb-51" style="edgeStyle=orthogonalEdgeStyle;rounded=0;orthogonalLoop=1;jettySize=auto;html=1;exitX=0.5;exitY=0.5;exitDx=0;exitDy=0;exitPerimeter=0;" edge="1" parent="1" source="a8vrUaEyxEgkCQSDoEBb-12" target="a8vrUaEyxEgkCQSDoEBb-38">
          <mxGeometry relative="1" as="geometry">
            <Array as="points">
              <mxPoint x="570" y="200" />
            </Array>
          </mxGeometry>
        </mxCell>
        <mxCell id="a8vrUaEyxEgkCQSDoEBb-12" value="Access Owners (Reviewers)" style="shape=umlActor;verticalLabelPosition=bottom;verticalAlign=top;html=1;outlineConnect=0;" vertex="1" parent="1">
          <mxGeometry x="590" y="170" width="30" height="60" as="geometry" />
        </mxCell>
        <mxCell id="a8vrUaEyxEgkCQSDoEBb-13" value="Audit Team" style="shape=umlActor;verticalLabelPosition=bottom;verticalAlign=top;html=1;outlineConnect=0;" vertex="1" parent="1">
          <mxGeometry x="930" y="920" width="30" height="60" as="geometry" />
        </mxCell>
        <mxCell id="a8vrUaEyxEgkCQSDoEBb-56" style="edgeStyle=orthogonalEdgeStyle;rounded=0;orthogonalLoop=1;jettySize=auto;html=1;exitX=0;exitY=0.3333333333333333;exitDx=0;exitDy=0;exitPerimeter=0;entryX=1;entryY=0;entryDx=0;entryDy=0;" edge="1" parent="1">
          <mxGeometry relative="1" as="geometry">
            <mxPoint x="770.5" y="199.75" as="sourcePoint" />
            <mxPoint x="619.9974746830585" y="390.00126265847075" as="targetPoint" />
            <Array as="points">
              <mxPoint x="790" y="200" />
              <mxPoint x="790" y="390" />
            </Array>
          </mxGeometry>
        </mxCell>
        <mxCell id="a8vrUaEyxEgkCQSDoEBb-14" value="Manager/Head of Department" style="shape=umlActor;verticalLabelPosition=bottom;verticalAlign=top;html=1;outlineConnect=0;" vertex="1" parent="1">
          <mxGeometry x="770" y="180" width="30" height="60" as="geometry" />
        </mxCell>
        <mxCell id="a8vrUaEyxEgkCQSDoEBb-15" value="End-Users" style="shape=umlActor;verticalLabelPosition=bottom;verticalAlign=top;html=1;outlineConnect=0;" vertex="1" parent="1">
          <mxGeometry x="1040" y="310" width="30" height="60" as="geometry" />
        </mxCell>
        <mxCell id="a8vrUaEyxEgkCQSDoEBb-16" value="System Users" style="shape=umlActor;verticalLabelPosition=bottom;verticalAlign=top;html=1;outlineConnect=0;" vertex="1" parent="1">
          <mxGeometry x="990" y="515" width="30" height="60" as="geometry" />
        </mxCell>
        <mxCell id="a8vrUaEyxEgkCQSDoEBb-30" value="Manage System Security&lt;br&gt;Comlpiance" style="ellipse;whiteSpace=wrap;html=1;" vertex="1" parent="1">
          <mxGeometry x="560" y="850" width="140" height="70" as="geometry" />
        </mxCell>
        <mxCell id="a8vrUaEyxEgkCQSDoEBb-31" value="Generate Compliance Reports" style="ellipse;whiteSpace=wrap;html=1;" vertex="1" parent="1">
          <mxGeometry x="510" y="540" width="140" height="70" as="geometry" />
        </mxCell>
        <mxCell id="a8vrUaEyxEgkCQSDoEBb-33" value="Develop and Maintain&lt;br&gt;System Automation" style="ellipse;whiteSpace=wrap;html=1;" vertex="1" parent="1">
          <mxGeometry x="280" y="640" width="140" height="70" as="geometry" />
        </mxCell>
        <mxCell id="a8vrUaEyxEgkCQSDoEBb-34" value="Integrate with IAM and&amp;nbsp;&lt;div&gt;Hr Systems&lt;/div&gt;" style="ellipse;whiteSpace=wrap;html=1;" vertex="1" parent="1">
          <mxGeometry x="400" y="715" width="140" height="70" as="geometry" />
        </mxCell>
        <mxCell id="a8vrUaEyxEgkCQSDoEBb-35" value="Ensure Data Storage&amp;nbsp;&lt;div&gt;and Retrieval&lt;/div&gt;" style="ellipse;whiteSpace=wrap;html=1;" vertex="1" parent="1">
          <mxGeometry x="510" y="750" width="140" height="70" as="geometry" />
        </mxCell>
        <mxCell id="a8vrUaEyxEgkCQSDoEBb-36" value="Assign Reviewers" style="ellipse;whiteSpace=wrap;html=1;" vertex="1" parent="1">
          <mxGeometry x="290" y="490" width="140" height="70" as="geometry" />
        </mxCell>
        <mxCell id="a8vrUaEyxEgkCQSDoEBb-37" value="Schedule Access Review" style="ellipse;whiteSpace=wrap;html=1;" vertex="1" parent="1">
          <mxGeometry x="285" y="360" width="140" height="70" as="geometry" />
        </mxCell>
        <mxCell id="a8vrUaEyxEgkCQSDoEBb-38" value="Approve or Reject Access" style="ellipse;whiteSpace=wrap;html=1;" vertex="1" parent="1">
          <mxGeometry x="500" y="380" width="140" height="70" as="geometry" />
        </mxCell>
        <mxCell id="a8vrUaEyxEgkCQSDoEBb-39" value="Audit Logging and Monitoring" style="ellipse;whiteSpace=wrap;html=1;" vertex="1" parent="1">
          <mxGeometry x="700" y="410" width="140" height="70" as="geometry" />
        </mxCell>
        <mxCell id="a8vrUaEyxEgkCQSDoEBb-40" value="Auto-Revoke&lt;div&gt;Unapproved access&lt;/div&gt;" style="ellipse;whiteSpace=wrap;html=1;" vertex="1" parent="1">
          <mxGeometry x="690" y="515" width="140" height="70" as="geometry" />
        </mxCell>
        <mxCell id="a8vrUaEyxEgkCQSDoEBb-41" value="Monitor and Optimize System performance" style="ellipse;whiteSpace=wrap;html=1;" vertex="1" parent="1">
          <mxGeometry x="700" y="650" width="140" height="70" as="geometry" />
        </mxCell>
        <mxCell id="a8vrUaEyxEgkCQSDoEBb-42" value="Send Notifications and&lt;div&gt;Reminders&lt;/div&gt;" style="ellipse;whiteSpace=wrap;html=1;" vertex="1" parent="1">
          <mxGeometry x="700" y="800" width="140" height="70" as="geometry" />
        </mxCell>
        <mxCell id="a8vrUaEyxEgkCQSDoEBb-55" style="edgeStyle=orthogonalEdgeStyle;rounded=0;orthogonalLoop=1;jettySize=auto;html=1;" edge="1" parent="1" source="a8vrUaEyxEgkCQSDoEBb-2" target="a8vrUaEyxEgkCQSDoEBb-2">
          <mxGeometry relative="1" as="geometry" />
        </mxCell>
      </root>
    </mxGraphModel>
  </diagram>
</mxfile>
